<?xml version="1.0" encoding="UTF-8" standalone="no"?>
<!-- Generator: Adobe Illustrator 24.2.0, SVG Export Plug-In . SVG Version: 6.00 Build 0)  -->

<svg
   version="1.1"
   id="Ebene_1"
   x="0px"
   y="0px"
   viewBox="0 0 595.28 841.89"
   style="enable-background:new 0 0 595.28 841.89;"
   xml:space="preserve"
   sodipodi:docname="EduInf_negativ_kurz.svg"
   inkscape:version="1.3.2 (091e20e, 2023-11-25)"
   xmlns:inkscape="http://www.inkscape.org/namespaces/inkscape"
   xmlns:sodipodi="http://sodipodi.sourceforge.net/DTD/sodipodi-0.dtd"
   xmlns="http://www.w3.org/2000/svg"
   xmlns:svg="http://www.w3.org/2000/svg"><defs
   id="defs28" /><sodipodi:namedview
   id="namedview28"
   pagecolor="#505050"
   bordercolor="#eeeeee"
   borderopacity="1"
   inkscape:showpageshadow="0"
   inkscape:pageopacity="0"
   inkscape:pagecheckerboard="0"
   inkscape:deskcolor="#505050"
   inkscape:zoom="0.46784525"
   inkscape:cx="261.83871"
   inkscape:cy="413.5983"
   inkscape:window-width="1424"
   inkscape:window-height="910"
   inkscape:window-x="0"
   inkscape:window-y="39"
   inkscape:window-maximized="0"
   inkscape:current-layer="Ebene_1" />
<style
   type="text/css"
   id="style1">
	.st0{fill:#FFFFFF;}
	.st1{fill:#00ACA9;}
	.st2{fill:#951B81;}
	.st3{fill:#65B32E;}
	.st4{fill:#009FE3;}
	.st5{fill:#E8412C;}
	.st6{fill:#EF7D00;}
</style>
<g
   id="g22"
   transform="translate(14.962212,-344.13088)">
	<path
   class="st0"
   d="m 169.08,429.56 h -6.37 v -11.42 h 6.37 v 1.18 h -5.04 V 423 h 4.73 v 1.17 h -4.73 v 4.2 h 5.04 z"
   id="path1" />
	<path
   class="st0"
   d="m 181.21,423.74 c 0,1.89 -0.51,3.33 -1.54,4.32 -1.03,0.99 -2.5,1.5 -4.42,1.5 h -3.16 v -11.42 h 3.5 c 1.78,0 3.16,0.49 4.14,1.48 0.98,0.99 1.48,2.35 1.48,4.12 z m -1.41,0.05 c 0,-1.49 -0.37,-2.61 -1.12,-3.37 -0.75,-0.75 -1.86,-1.13 -3.33,-1.13 h -1.93 v 9.12 h 1.62 c 1.58,0 2.77,-0.39 3.57,-1.17 0.8,-0.78 1.19,-1.93 1.19,-3.45 z"
   id="path2" />
	<path
   class="st0"
   d="m 192.86,418.14 v 7.39 c 0,1.3 -0.39,2.33 -1.18,3.07 -0.79,0.75 -1.87,1.12 -3.24,1.12 -1.37,0 -2.44,-0.38 -3.19,-1.12 -0.75,-0.75 -1.13,-1.78 -1.13,-3.09 v -7.36 h 1.33 v 7.45 c 0,0.95 0.26,1.68 0.78,2.2 0.52,0.51 1.29,0.77 2.3,0.77 0.96,0 1.71,-0.26 2.23,-0.77 0.52,-0.51 0.78,-1.25 0.78,-2.21 v -7.44 h 1.32 z"
   id="path3" />
	<path
   class="st0"
   d="m 201.25,419.16 c -1.26,0 -2.25,0.42 -2.97,1.25 -0.72,0.83 -1.09,1.98 -1.09,3.43 0,1.5 0.35,2.65 1.05,3.46 0.7,0.82 1.7,1.22 3,1.22 0.8,0 1.71,-0.14 2.73,-0.43 v 1.16 c -0.79,0.3 -1.77,0.45 -2.93,0.45 -1.68,0 -2.98,-0.51 -3.89,-1.53 -0.91,-1.02 -1.37,-2.47 -1.37,-4.35 0,-1.18 0.22,-2.21 0.66,-3.09 0.44,-0.89 1.08,-1.57 1.91,-2.05 0.83,-0.48 1.81,-0.72 2.93,-0.72 1.2,0 2.24,0.22 3.14,0.66 l -0.56,1.14 c -0.88,-0.4 -1.74,-0.6 -2.61,-0.6 z"
   id="path4" />
	<path
   class="st0"
   d="m 214.11,429.56 -1.42,-3.63 h -4.58 l -1.41,3.63 h -1.34 l 4.52,-11.47 H 211 l 4.49,11.47 z m -1.83,-4.83 -1.33,-3.54 c -0.17,-0.45 -0.35,-1 -0.53,-1.65 -0.11,0.5 -0.28,1.05 -0.49,1.65 l -1.34,3.54 z"
   id="path5" />
	<path
   class="st0"
   d="m 221.06,429.56 h -1.33 v -10.24 h -3.62 v -1.18 h 8.56 v 1.18 h -3.62 v 10.24 z"
   id="path6" />
	<path
   class="st0"
   d="m 226.87,429.56 v -11.42 h 1.33 v 11.42 z"
   id="path7" />
	<path
   class="st0"
   d="m 241.73,423.83 c 0,1.83 -0.46,3.27 -1.39,4.31 -0.93,1.04 -2.21,1.57 -3.86,1.57 -1.68,0 -2.98,-0.51 -3.89,-1.54 -0.91,-1.03 -1.37,-2.48 -1.37,-4.36 0,-1.86 0.46,-3.3 1.38,-4.32 0.92,-1.02 2.22,-1.54 3.91,-1.54 1.64,0 2.92,0.52 3.84,1.56 0.92,1.04 1.38,2.49 1.38,4.32 z m -9.1,0 c 0,1.55 0.33,2.72 0.99,3.52 0.66,0.8 1.62,1.2 2.87,1.2 1.27,0 2.22,-0.4 2.87,-1.2 0.65,-0.8 0.97,-1.97 0.97,-3.52 0,-1.54 -0.32,-2.7 -0.96,-3.5 -0.64,-0.8 -1.59,-1.19 -2.86,-1.19 -1.27,0 -2.23,0.4 -2.89,1.2 -0.66,0.8 -0.99,1.97 -0.99,3.49 z"
   id="path8" />
	<path
   class="st0"
   d="m 253.68,429.56 h -1.52 l -6.24,-9.59 h -0.06 c 0.08,1.12 0.12,2.16 0.12,3.09 v 6.49 h -1.23 v -11.42 h 1.5 l 6.23,9.55 h 0.06 c -0.01,-0.14 -0.03,-0.59 -0.07,-1.36 -0.04,-0.77 -0.05,-1.31 -0.04,-1.64 v -6.55 h 1.24 v 11.43 z"
   id="path9" />
	<path
   class="st0"
   d="m 261.93,429.56 v -11.42 h 1.33 v 11.42 z"
   id="path10" />
	<path
   class="st0"
   d="m 275.8,429.56 h -1.52 l -6.24,-9.59 h -0.06 c 0.08,1.12 0.12,2.16 0.12,3.09 v 6.49 h -1.23 v -11.42 h 1.5 l 6.23,9.55 h 0.06 c -0.01,-0.14 -0.03,-0.59 -0.07,-1.36 -0.04,-0.77 -0.05,-1.31 -0.04,-1.64 v -6.55 h 1.24 v 11.43 z"
   id="path11" />
	<path
   class="st0"
   d="m 284.05,429.56 v -11.42 h 1.33 v 11.42 z"
   id="path12" />
	<path
   class="st0"
   d="m 297.91,429.56 h -1.52 l -6.24,-9.59 h -0.06 c 0.08,1.12 0.12,2.16 0.12,3.09 v 6.49 h -1.23 v -11.42 h 1.5 l 6.23,9.55 h 0.06 c -0.01,-0.14 -0.03,-0.59 -0.07,-1.36 -0.04,-0.77 -0.05,-1.31 -0.04,-1.64 v -6.55 h 1.24 v 11.43 z"
   id="path13" />
	<path
   class="st0"
   d="m 302.86,429.56 h -1.33 v -11.42 h 6.37 v 1.18 h -5.04 v 4.18 h 4.73 v 1.18 h -4.73 z"
   id="path14" />
	<path
   class="st0"
   d="m 320.19,423.83 c 0,1.83 -0.46,3.27 -1.39,4.31 -0.93,1.04 -2.21,1.57 -3.86,1.57 -1.68,0 -2.98,-0.51 -3.89,-1.54 -0.91,-1.03 -1.37,-2.48 -1.37,-4.36 0,-1.86 0.46,-3.3 1.38,-4.32 0.92,-1.02 2.22,-1.54 3.91,-1.54 1.64,0 2.92,0.52 3.84,1.56 0.92,1.04 1.38,2.49 1.38,4.32 z m -9.11,0 c 0,1.55 0.33,2.72 0.99,3.52 0.66,0.8 1.62,1.2 2.87,1.2 1.27,0 2.22,-0.4 2.87,-1.2 0.65,-0.8 0.97,-1.97 0.97,-3.52 0,-1.54 -0.32,-2.7 -0.96,-3.5 -0.64,-0.8 -1.59,-1.19 -2.86,-1.19 -1.27,0 -2.23,0.4 -2.89,1.2 -0.66,0.8 -0.99,1.97 -0.99,3.49 z"
   id="path15" />
	<path
   class="st0"
   d="m 324.54,424.81 v 4.75 h -1.33 v -11.42 h 3.13 c 1.4,0 2.44,0.27 3.11,0.8 0.67,0.53 1,1.34 1,2.42 0,1.51 -0.77,2.53 -2.3,3.06 l 3.1,5.13 h -1.57 l -2.77,-4.75 h -2.37 z m 0,-1.14 h 1.82 c 0.94,0 1.62,-0.19 2.06,-0.56 0.44,-0.37 0.66,-0.93 0.66,-1.68 0,-0.75 -0.22,-1.3 -0.67,-1.63 -0.45,-0.33 -1.16,-0.5 -2.14,-0.5 h -1.73 z"
   id="path16" />
	<path
   class="st0"
   d="m 338.64,429.56 -3.88,-10.12 h -0.06 c 0.07,0.8 0.11,1.75 0.11,2.86 v 7.27 h -1.23 v -11.42 h 2 l 3.62,9.42 h 0.06 l 3.65,-9.42 h 1.98 v 11.42 h -1.33 v -7.36 c 0,-0.84 0.04,-1.76 0.11,-2.75 h -0.06 l -3.91,10.11 h -1.06 z"
   id="path17" />
	<path
   class="st0"
   d="m 355.69,429.56 -1.42,-3.63 h -4.58 l -1.41,3.63 h -1.34 l 4.52,-11.47 h 1.12 l 4.49,11.47 z m -1.84,-4.83 -1.33,-3.54 c -0.17,-0.45 -0.35,-1 -0.53,-1.65 -0.11,0.5 -0.28,1.05 -0.49,1.65 l -1.34,3.54 z"
   id="path18" />
	<path
   class="st0"
   d="m 362.63,429.56 h -1.33 v -10.24 h -3.62 v -1.18 h 8.56 v 1.18 h -3.62 v 10.24 z"
   id="path19" />
	<path
   class="st0"
   d="m 368.45,429.56 v -11.42 h 1.33 v 11.42 z"
   id="path20" />
	<path
   class="st0"
   d="m 378.28,419.16 c -1.25,0 -2.25,0.42 -2.97,1.25 -0.72,0.83 -1.09,1.98 -1.09,3.43 0,1.5 0.35,2.65 1.05,3.46 0.7,0.81 1.7,1.22 3,1.22 0.8,0 1.71,-0.14 2.73,-0.43 v 1.16 c -0.79,0.3 -1.77,0.45 -2.93,0.45 -1.68,0 -2.98,-0.51 -3.89,-1.53 -0.91,-1.02 -1.37,-2.47 -1.37,-4.35 0,-1.18 0.22,-2.21 0.66,-3.09 0.44,-0.88 1.08,-1.57 1.91,-2.05 0.83,-0.48 1.81,-0.72 2.93,-0.72 1.2,0 2.25,0.22 3.14,0.66 l -0.56,1.14 c -0.88,-0.4 -1.75,-0.6 -2.61,-0.6 z"
   id="path21" />
	<path
   class="st0"
   d="m 390.41,426.52 c 0,1 -0.36,1.79 -1.09,2.35 -0.73,0.56 -1.72,0.84 -2.97,0.84 -1.35,0 -2.4,-0.17 -3.12,-0.52 v -1.28 c 0.47,0.2 0.98,0.35 1.53,0.47 0.55,0.12 1.1,0.17 1.64,0.17 0.89,0 1.55,-0.17 2,-0.5 0.45,-0.33 0.67,-0.8 0.67,-1.4 0,-0.4 -0.08,-0.72 -0.24,-0.97 -0.16,-0.25 -0.42,-0.49 -0.8,-0.7 -0.38,-0.21 -0.94,-0.46 -1.7,-0.73 -1.06,-0.38 -1.82,-0.83 -2.28,-1.35 -0.46,-0.52 -0.68,-1.2 -0.68,-2.04 0,-0.88 0.33,-1.58 0.99,-2.1 0.66,-0.52 1.54,-0.78 2.62,-0.78 1.14,0 2.18,0.21 3.13,0.62 l -0.41,1.16 c -0.94,-0.4 -1.86,-0.59 -2.75,-0.59 -0.7,0 -1.25,0.15 -1.65,0.45 -0.4,0.3 -0.59,0.72 -0.59,1.26 0,0.4 0.07,0.72 0.22,0.97 0.15,0.25 0.39,0.48 0.74,0.7 0.35,0.22 0.88,0.44 1.59,0.7 1.2,0.43 2.02,0.89 2.47,1.38 0.45,0.49 0.68,1.11 0.68,1.89 z"
   id="path22" />
</g>
<g
   id="g28"
   transform="translate(14.962212,-344.13088)">
	<polygon
   class="st1"
   points="169.04,378.42 169.04,355.67 162.88,355.67 162.88,404.67 169.04,404.67 169.04,383.88 191.09,383.88 191.09,378.42 "
   id="polygon22" />
	<rect
   x="172.53999"
   y="355.67001"
   class="st0"
   width="21.35"
   height="3.01"
   id="rect22" />
	<rect
   x="172.53999"
   y="401.66"
   class="st0"
   width="22.049999"
   height="3.01"
   id="rect23" />
	<path
   class="st2"
   d="m 214.75,355.67 h -12.18 v 5.46 h 12.11 c 14.77,0 20.79,8.47 20.79,19.04 0,10.57 -6.09,19.04 -20.72,19.04 h -5.32 v 5.46 h 5.39 c 18.06,0 26.81,-10.92 26.81,-24.5 0,-13.58 -8.75,-24.5 -26.88,-24.5 z"
   id="path23" />
	<rect
   x="202.57001"
   y="364.63"
   class="st0"
   width="3.3599999"
   height="40.040001"
   id="rect24" />
	<path
   class="st0"
   d="m 284.61,387.03 c 0,9.24 -5.32,14.91 -13.93,15.61 v 3.01 c 10.5,-0.7 17.29,-7.56 17.29,-18.62 v -31.36 h -3.36 z"
   id="path24" />
	<path
   class="st3"
   d="m 255.91,386.61 v -30.94 h -6.16 v 30.94 c 0,11.34 7.07,18.34 17.36,19.04 v -5.53 c -6.93,-0.7 -11.2,-5.53 -11.2,-13.51 z"
   id="path25" />
	<rect
   x="298.95999"
   y="368.31"
   class="st4"
   width="6.1599998"
   height="36.360001"
   id="rect25" />
	<rect
   x="298.95999"
   y="355.67001"
   class="st0"
   width="6.1599998"
   height="6.46"
   id="rect26" />
	<polygon
   class="st0"
   points="319.33,404.67 319.33,371.84 316.04,368.13 316.04,404.67 "
   id="polygon26" />
	<polygon
   class="st5"
   points="316.67,354.27 316.04,354.27 316.04,362.74 354.26,406.07 354.82,406.07 354.82,355.67 348.66,355.67 348.66,390.88 "
   id="polygon27" />
	<polygon
   class="st6"
   points="364.76,355.67 364.76,404.67 370.92,404.67 370.92,383.88 391.64,383.88 391.64,378.42 370.92,378.42 370.92,355.67 "
   id="polygon28" />
	<rect
   x="374.42001"
   y="355.67001"
   class="st0"
   width="21.35"
   height="3.01"
   id="rect28" />
</g>
</svg>
