<?xml version="1.0" encoding="UTF-8"?>
<svg id="Ebene_1" data-name="Ebene 1" xmlns="http://www.w3.org/2000/svg" viewBox="0 0 1065.31 180.49">
  <defs>
    <style>
      .cls-1 {
        fill: #e8412c;
      }

      .cls-2 {
        font-family: MyriadPro-Regular, 'Myriad Pro';
        font-size: 114px;
      }

      .cls-2, .cls-3 {
        isolation: isolate;
      }

      .cls-2, .cls-4 {
        fill: #7a7b7a;
      }

      .cls-5 {
        fill: #009fe3;
      }

      .cls-6 {
        fill: #951b81;
      }

      .cls-7 {
        fill: #50ae2f;
      }

      .cls-8 {
        fill: #65b32e;
      }

      .cls-9 {
        fill: #fff;
      }

      .cls-10 {
        fill: none;
      }

      .cls-11 {
        fill: #0074ac;
      }

      .cls-12 {
        fill: #00aca9;
      }

      .cls-13 {
        fill: #ef7d00;
      }
    </style>
  </defs>
  <g id="g28">
    <polygon id="polygon22" class="cls-12" points="13.08 97.64 13.08 49.33 0 49.33 0 153.38 13.08 153.38 13.08 109.24 59.91 109.24 59.91 97.64 13.08 97.64"/>
    <rect id="rect22" class="cls-9" x="20.51" y="49.33" width="45.34" height="6.39"/>
    <rect id="rect23" class="cls-9" x="20.51" y="146.99" width="46.82" height="6.39"/>
    <path id="path23" class="cls-6" d="M110.15,49.33h-25.86v11.59h25.72c31.36,0,44.15,17.99,44.15,40.43s-12.93,40.43-44,40.43h-11.3v11.59h11.45c38.35,0,56.93-23.19,56.93-52.03s-18.58-52.03-57.08-52.03h0v.02Z"/>
    <rect id="rect24" class="cls-9" x="84.28" y="68.36" width="7.14" height="85.03"/>
    <path id="path24" class="cls-9" d="M258.5,115.92c0,19.62-11.3,31.66-29.58,33.15v6.39c22.3-1.49,36.72-16.05,36.72-39.54V49.33h-7.14v66.59Z"/>
    <path id="path25" class="cls-8" d="M197.55,115.03V49.33h-13.08v65.7c0,24.08,15.01,38.95,36.86,40.43v-11.74c-14.72-1.49-23.78-11.74-23.78-28.69h0Z"/>
    <rect id="rect25" class="cls-5" x="288.97" y="76.17" width="13.08" height="77.21"/>
    <rect id="rect26" class="cls-9" x="288.97" y="49.33" width="13.08" height="13.72"/>
    <polygon id="polygon26" class="cls-9" points="332.23 153.38 332.23 83.67 325.24 75.79 325.24 153.38 332.23 153.38"/>
    <polygon id="polygon27" class="cls-1" points="326.58 46.36 325.24 46.36 325.24 64.34 406.41 156.36 407.59 156.36 407.59 49.33 394.51 49.33 394.51 124.1 326.58 46.36"/>
    <polygon id="polygon28" class="cls-13" points="428.7 49.33 428.7 153.38 441.78 153.38 441.78 109.24 485.78 109.24 485.78 97.64 441.78 97.64 441.78 49.33 428.7 49.33"/>
    <rect id="rect28" class="cls-9" x="449.22" y="49.33" width="45.34" height="6.39"/>
  </g>
  <g id="layer1">
    <g id="g42">
      <g id="g44">
        <g id="g50">
          <path id="path52" class="cls-4" d="M651.83,58.86l-1.42,12.56c-5.02-2.18-10.19-3.28-15.5-3.28-3.21,0-5.86.73-7.97,2.18-2.69,1.82-4.04,4.63-4.04,8.41,0,3.42,2.87,6.37,8.63,8.85,9.24,3.86,14.63,6.3,16.16,7.31,5.75,4.01,8.63,9.68,8.63,17.03,0,7.86-2.84,13.8-8.52,17.8-5.02,3.49-11.72,5.24-20.09,5.24-5.02,0-11.54-.98-19.54-2.95l1.42-13.76c5.75,3.13,11.5,4.7,17.25,4.7,3.35,0,6.33-.76,8.95-2.29,3.06-1.89,4.59-4.41,4.59-7.54,0-3.86-2.88-7.06-8.63-9.61-9.97-4.44-15.36-6.92-16.16-7.43-5.75-3.93-8.63-9.5-8.63-16.71,0-7.93,2.76-13.94,8.3-18.02,4.73-3.49,10.85-5.24,18.35-5.24,6.7,0,12.77.91,18.23,2.73"/>
        </g>
        <g id="g54">
          <path id="path56" class="cls-4" d="M707.19,77.97l-1.31,11.57c-2.98-1.38-6.3-2.08-9.94-2.08-4.51,0-8.12,1.64-10.81,4.91-2.69,3.28-4.04,7.57-4.04,12.89s1.24,9.82,3.71,13.1c2.69,3.49,6.51,5.24,11.46,5.24,3.5,0,7.24-.87,11.25-2.62l.66,12.12c-4.01,1.24-8.89,1.86-14.63,1.86-8.95,0-15.87-2.8-20.75-8.41-4.66-5.31-6.99-12.41-6.99-21.29s2.33-15.32,6.99-20.64c4.95-5.68,11.68-8.52,20.2-8.52,5.31,0,10.05.62,14.2,1.86"/>
        </g>
        <g id="g58">
          <path id="path60" class="cls-4" d="M725.32,92.93l-.44-12.56c6.19-2.84,12.7-4.26,19.55-4.26,8.52,0,14.69,1.88,18.51,5.62,3.82,3.75,5.73,9.77,5.73,18.07v7.21c0,3.79.07,8.48.22,14.09.07,3.93.29,8.12.66,12.56h-12.88c-.15-.73-.36-3.53-.66-8.41h-.22c-1.67,2.99-4.11,5.35-7.32,7.1-3.2,1.75-6.55,2.62-10.05,2.62-5.31,0-9.83-1.45-13.54-4.37-4.08-3.13-6.11-7.24-6.11-12.34,0-7.57,3.2-12.92,9.61-16.05,4.44-2.18,10.74-3.27,18.89-3.27h8.08c0-4.44-1-7.57-3-9.39s-5.22-2.73-9.66-2.73c-6.19,0-11.97,2.04-17.36,6.12M732.74,117.39c0,4.59,3.09,6.88,9.28,6.88,5.82,0,9.83-2.69,12.01-8.08.87-2.25,1.31-5.1,1.31-8.52h-6.33c-10.85,0-16.27,3.24-16.27,9.72"/>
        </g>
        <g id="g62">
          <path id="path64" class="cls-4" d="M784.61,133.65V57.43h20.86c29.33,0,44,12.7,44,38.11s-14.67,38.11-44,38.11h-20.86ZM799.89,69.45v52.19h8.52c6.77,0,12.56-2.29,17.36-6.88,5.17-4.88,7.75-11.28,7.75-19.22s-2.58-14.38-7.75-19.33c-4.81-4.51-10.59-6.77-17.36-6.77h-8.52Z"/>
        </g>
        <g id="g66">
          <path id="path68" class="cls-4" d="M904.17,58.86l-1.42,12.56c-5.02-2.18-10.19-3.28-15.51-3.28-3.21,0-5.86.73-7.97,2.18-2.7,1.82-4.04,4.63-4.04,8.41,0,3.42,2.88,6.37,8.63,8.85,9.24,3.86,14.63,6.3,16.16,7.31,5.75,4.01,8.63,9.68,8.63,17.03,0,7.86-2.84,13.8-8.52,17.8-5.02,3.49-11.72,5.24-20.09,5.24-5.02,0-11.54-.98-19.54-2.95l1.42-13.76c5.75,3.13,11.5,4.7,17.25,4.7,3.35,0,6.33-.76,8.95-2.29,3.06-1.89,4.59-4.41,4.59-7.54,0-3.86-2.88-7.06-8.63-9.61-9.97-4.44-15.36-6.92-16.16-7.43-5.75-3.93-8.62-9.5-8.62-16.71,0-7.93,2.77-13.94,8.3-18.02,4.73-3.49,10.85-5.24,18.34-5.24,6.69,0,12.77.91,18.23,2.73"/>
        </g>
        <g id="g70">
          <path id="path72" class="cls-11" d="M608.4,180.02v-26.21h7.17c10.09,0,15.13,4.37,15.13,13.1s-5.04,13.1-15.13,13.1h-7.17ZM613.65,157.95v17.95h2.93c2.33,0,4.32-.79,5.97-2.37,1.78-1.68,2.67-3.88,2.67-6.61s-.89-4.94-2.67-6.64c-1.65-1.55-3.64-2.33-5.97-2.33h-2.93Z"/>
        </g>
        <g id="g74">
          <path id="path76" class="cls-11" d="M635.05,180.02v-26.21h5.67c4.03,0,6.8.28,8.3.83,2.7.97,4.05,3.06,4.05,6.27,0,1.57-.49,2.93-1.46,4.05-.98,1.13-2.29,1.8-3.94,2.03v.07c1.15.1,2.08,1,2.78,2.7l4.21,10.25h-5.85l-3.16-8.19c-.4-1.02-.83-1.71-1.28-2.06-.52-.43-1.31-.64-2.36-.64h-1.69v10.89h-5.27ZM640.31,157.95v7.06h1.73c3.7,0,5.56-1.21,5.56-3.64,0-1.4-.6-2.37-1.8-2.89-.8-.35-2.05-.53-3.75-.53h-1.74Z"/>
        </g>
      </g>
    </g>
    <g id="g78">
      <path id="path80" class="cls-11" d="M658.44,180.02v-26.21h15.47v4.13h-10.21v6.46h9.35v4.13h-9.35v7.36h10.29v4.13h-15.55Z"/>
    </g>
    <g id="g82">
      <g id="g84">
        <g id="g90">
          <path id="path92" class="cls-11" d="M693.88,154.3l-.49,4.32c-1.73-.75-3.5-1.13-5.33-1.13-1.1,0-2.02.25-2.74.75-.93.63-1.39,1.59-1.39,2.89,0,1.18.99,2.19,2.97,3.04,3.18,1.33,5.03,2.17,5.56,2.52,1.98,1.37,2.97,3.33,2.97,5.85,0,2.7-.98,4.74-2.93,6.12-1.73,1.2-4.03,1.8-6.91,1.8-1.73,0-3.97-.34-6.72-1.01l.49-4.73c1.98,1.08,3.95,1.61,5.93,1.61,1.15,0,2.18-.26,3.08-.79,1.05-.65,1.58-1.51,1.58-2.59,0-1.33-.99-2.43-2.97-3.3-3.43-1.53-5.28-2.38-5.56-2.55-1.98-1.35-2.97-3.27-2.97-5.74,0-2.73.95-4.8,2.86-6.2,1.63-1.2,3.73-1.8,6.31-1.8,2.3,0,4.39.31,6.27.94"/>
        </g>
        <g id="g94">
          <path id="path96" class="cls-11" d="M700.19,180.02v-26.21h7.17c10.09,0,15.13,4.37,15.13,13.1s-5.05,13.1-15.13,13.1h-7.17ZM705.45,157.95v17.95h2.93c2.33,0,4.32-.79,5.97-2.37,1.78-1.68,2.67-3.88,2.67-6.61s-.89-4.94-2.67-6.64c-1.65-1.55-3.64-2.33-5.97-2.33h-2.93Z"/>
        </g>
      </g>
    </g>
    <g id="g98">
      <path id="path100" class="cls-11" d="M727.3,180.02v-26.21h15.47v4.13h-10.21v6.46h9.35v4.13h-9.35v7.36h10.29v4.13h-15.55Z"/>
    </g>
    <g id="g102">
      <path id="path104" class="cls-11" d="M747.91,180.02v-26.21h6.49l10.03,19.6v-19.6h5.03v26.21h-6.45l-10.07-19.6v19.6h-5.03Z"/>
    </g>
    <g id="g106">
      <path id="path108" class="cls-7" d="M784.4,180.02v-26.21h5.25v22.08h10.18v4.13h-15.43Z"/>
    </g>
    <g id="g110">
      <path id="path112" class="cls-7" d="M802.99,180.02v-26.21h15.47v4.13h-10.22v6.46h9.35v4.13h-9.35v7.36h10.29v4.13h-15.54Z"/>
    </g>
    <path id="path114" class="cls-7" d="M823.6,153.82h5.26v26.21h-5.26v-26.21Z"/>
    <g id="g116">
      <g id="g118">
        <g id="g124">
          <path id="path126" class="cls-7" d="M834.22,180.02v-26.21h6.64c7.28,0,10.93,2.64,10.93,7.92,0,2.88-.98,5.03-2.93,6.46-1.73,1.25-4.12,1.88-7.17,1.88h-2.21v9.95h-5.26ZM839.48,157.95v8h1.84c3.33,0,4.99-1.3,4.99-3.91s-1.66-4.09-4.99-4.09h-1.84Z"/>
        </g>
      </g>
    </g>
    <g id="g128">
      <path id="path130" class="cls-7" d="M852.92,180.02v-4.28l12.31-17.79h-11.83v-4.13h17.42v4.28l-12.43,17.8h12.69v4.13h-18.17.01Z"/>
    </g>
    <path id="path132" class="cls-7" d="M875.22,153.82h5.26v26.21h-5.26v-26.21Z"/>
    <g id="g134">
      <g id="g136">
        <g id="g142">
          <path id="path144" class="cls-7" d="M907.14,154.46l-.34,4.43c-2-.93-4.26-1.39-6.76-1.39-2.98,0-5.33.91-7.06,2.74-1.63,1.73-2.44,3.98-2.44,6.76s.8,4.97,2.4,6.72c1.6,1.75,3.77,2.63,6.5,2.63,1.3,0,2.45-.12,3.45-.37v-6.83h-5.56v-4.13h10.59v14.12c-3.33.9-6.16,1.35-8.48,1.35-4.41,0-7.86-1.08-10.36-3.23-2.68-2.28-4.02-5.57-4.02-9.87s1.28-7.9,3.83-10.35c2.55-2.44,6.07-3.66,10.55-3.66,2.7,0,5.27.36,7.7,1.09"/>
        </g>
      </g>
    </g>
    <g id="g146">
      <path id="path148" class="cls-11" d="M1050.98,14.34v119.31h14.33V0h-133.65v14.34h119.32Z"/>
    </g>
    <g id="g150">
      <path id="path152" class="cls-11" d="M1022.3,43.01v90.64h14.34V28.67h-104.98v14.33h90.64,0Z"/>
    </g>
    <rect id="rect4213" class="cls-11" x="995.69" y="56.3" width="14.34" height="77.35"/>
    <path class="cls-11" d="M950.34,111.96l-5.93,21.77h-12.98l22.07-76.83h16.04l22.38,76.83h-13.59l-6.23-21.77h-21.76ZM970.06,101.36l-5.42-18.92c-1.33-4.67-2.45-9.92-3.48-14.36h-.2c-1.02,4.45-2.15,9.8-3.27,14.36l-5.31,18.92h17.68Z"/>
    <rect class="cls-10" x="906.04" y="52.79" width="24" height="87"/>
    <g class="cls-3">
      <text class="cls-2" transform="translate(906.04 133.73)"><tspan x="0" y="0">.</tspan></text>
    </g>
  </g>
</svg>